<?xml version="1.0" encoding="iso-8859-1"?>
<!-- Uploaded to: SVG Repo, www.svgrepo.com, Generator: SVG Repo Mixer Tools -->
<svg height="800px" width="800px" version="1.1" id="Layer_1" xmlns="http://www.w3.org/2000/svg" xmlns:xlink="http://www.w3.org/1999/xlink" 
	 viewBox="0 0 512 512" xml:space="preserve">
<path style="fill:#ECBA16;" d="M467.862,512H44.138C19.421,512,0,492.579,0,467.862V44.138C0,19.421,19.421,0,44.138,0h423.724
	C492.579,0,512,19.421,512,44.138v423.724C512,492.579,492.579,512,467.862,512"/>
<path style="fill:#AD8412;" d="M459.034,256c0-112.11-90.924-203.034-203.034-203.034S52.966,143.89,52.966,256
	S143.89,459.034,256,459.034S459.034,368.11,459.034,256"/>
<g>
	<path style="fill:#E8EDEE;" d="M61.793,44.138c0-9.71-7.945-17.655-17.655-17.655s-17.655,7.945-17.655,17.655
		s7.945,17.655,17.655,17.655S61.793,53.848,61.793,44.138"/>
	<path style="fill:#E8EDEE;" d="M61.793,467.862c0-9.71-7.945-17.655-17.655-17.655s-17.655,7.945-17.655,17.655
		s7.945,17.655,17.655,17.655S61.793,477.572,61.793,467.862"/>
	<path style="fill:#E8EDEE;" d="M485.517,44.138c0-9.71-7.945-17.655-17.655-17.655s-17.655,7.945-17.655,17.655
		s7.945,17.655,17.655,17.655S485.517,53.848,485.517,44.138"/>
	<path style="fill:#E8EDEE;" d="M485.517,467.862c0-9.71-7.945-17.655-17.655-17.655s-17.655,7.945-17.655,17.655
		s7.945,17.655,17.655,17.655S485.517,477.572,485.517,467.862"/>
</g>
<path style="fill:#ECBA16;" d="M335.448,211.862h-70.621l61.793-97.103H256L176.552,256h58.262l-58.262,141.241L335.448,211.862z"/>
</svg>