<svg width="201" height="202" viewBox="0 0 201 202" fill="none" xmlns="http://www.w3.org/2000/svg">
<path fill-rule="evenodd" clip-rule="evenodd" d="M98.5 1.50002C101.325 1.08102 103.491 2.08102 105 4.50002C105.667 13.833 105.667 23.167 105 32.5C102 36.5 99 36.5 96 32.5C95.333 23.167 95.333 13.833 96 4.50002C97.045 3.62702 97.878 2.62702 98.5 1.50002ZM50.5 14.5C53.652 14.047 56.152 15.047 58 17.5C61.667 24.167 65.333 30.833 69 37.5C70.167 43 68 45.167 62.5 44C57.602 36.762 53.102 29.262 49 21.5C48.167 18.829 48.667 16.496 50.5 14.5ZM144.5 14.5C149.993 13.178 152.493 15.178 152 20.5C148.086 27.996 143.92 35.329 139.5 42.5C136.284 45.32 133.451 44.987 131 41.5C130.333 40.5 130.333 39.5 131 38.5C135.728 30.611 140.228 22.611 144.5 14.5ZM91.5 44.5C121.978 42.643 143.145 55.643 155 83.5C162.786 118.533 150.286 143.033 117.5 157C85.175 164.253 61.675 153.087 47 123.5C37.167 90.348 47.333 65.515 77.5 49C82.184 47.17 86.851 45.67 91.5 44.5ZM15.5 49.5C25.408 52.541 34.575 57.208 43 63.5C44.167 69 42 71.167 36.5 70C29.167 66 21.833 62 14.5 58C13.041 54.929 13.374 52.096 15.5 49.5ZM179.5 49.5C186.997 48.804 188.997 51.637 185.5 58C178.337 61.747 171.337 65.747 164.5 70C157.42 70.521 155.753 67.688 159.5 61.5C166.562 57.977 173.228 53.977 179.5 49.5ZM98.8556 63.9592C98.5534 64.6538 98.0916 65.2541 97.4796 65.7581C96.8383 73.2704 96.8398 80.7816 97.4841 88.2939C98.3305 89.241 99.2035 89.7479 100.1 89.8858C100.98 90.0213 101.954 89.812 103.039 89.1915C104.16 81.385 104.32 73.5589 103.519 65.7121C102.27 64.3426 100.731 63.7605 98.8556 63.9592ZM98.4283 63.0052C100.814 62.6595 102.818 63.385 104.377 65.1713L104.481 65.2907L104.497 65.4484C105.334 73.5107 105.166 81.5523 103.995 89.5723L103.961 89.8045L103.76 89.9268C102.458 90.7219 101.18 91.064 99.9474 90.8742C98.7139 90.6843 97.6066 89.9745 96.6206 88.8257L96.5158 88.7036L96.5019 88.5434C95.8324 80.8475 95.8324 73.1525 96.5019 65.4567L96.5211 65.2357L96.6978 65.1017C97.3434 64.6118 97.7815 64.0223 98.0294 63.3312L98.1308 63.0483L98.4283 63.0052ZM91.3308 71.8237L91.4818 72.3659C92.4865 75.9734 92.4917 79.1868 91.445 81.9779C90.4096 84.739 88.3659 87.0303 85.366 88.8628C81.829 94.8276 80.6309 100.242 81.6734 105.134C82.7177 110.035 86.0313 114.509 91.7163 118.54C99.8021 120.715 106.035 120.247 110.515 117.287C115 114.324 117.86 108.778 118.996 100.496C118.15 93.4929 114.893 87.9737 109.209 83.9066L109.022 83.7729L109.002 83.544C108.684 79.9423 109.023 76.5431 110.023 73.3505L110.19 72.818L110.701 73.0421C118.144 76.3049 123.467 80.8191 126.616 86.6051C129.763 92.3902 130.707 99.3912 129.495 107.573L129.489 107.611L129.478 107.647C126.589 117.035 121.971 123.687 115.584 127.52C109.198 131.351 101.121 132.317 91.4078 130.491L91.3589 130.482L91.3127 130.464C83.2449 127.203 77.4398 122.566 73.9542 116.53C70.4688 110.494 69.3354 103.116 70.5046 94.4333L70.5098 94.3941L70.5212 94.3562C73.7129 83.7268 80.4867 76.2774 90.8101 72.0375L91.3308 71.8237ZM71.4904 94.6059C70.3513 103.113 71.4775 110.241 74.8202 116.03C78.1613 121.816 83.7496 126.32 91.6413 129.518C101.175 131.301 108.967 130.324 115.07 126.662C121.175 122.999 125.669 116.603 128.511 107.389C129.692 99.3797 128.752 92.6227 125.737 87.0831C122.791 81.6677 117.833 77.3631 110.816 74.1879C110.002 77.0225 109.721 80.0347 109.979 83.229C115.796 87.4612 119.139 93.2096 119.997 100.441L120.004 100.504L119.996 100.567C118.847 109.022 115.904 114.925 111.067 118.121C106.23 121.317 99.63 121.72 91.3694 119.483L91.284 119.459L91.2117 119.408C85.3529 115.272 81.8131 110.588 80.6953 105.343C79.5775 100.097 80.9028 94.3878 84.5708 88.2437L84.6349 88.1363L84.742 88.0717C87.6522 86.318 89.5565 84.166 90.5087 81.6268C91.4113 79.2199 91.4779 76.4133 90.664 73.1828C80.9263 77.3379 74.5447 84.469 71.4904 94.6059ZM110.5 73.5C109.521 76.625 109.187 79.958 109.5 83.5C108.192 79.981 108.192 76.315 109.5 72.5C110.107 72.624 110.44 72.957 110.5 73.5ZM3.49995 96.5C12.8389 96.334 22.1729 96.5 31.4999 97C35.7169 100.473 35.3839 103.473 30.4999 106C21.8329 106.667 13.1669 106.667 4.49995 106C-0.450051 103.357 -0.783051 100.19 3.49995 96.5ZM169.5 96.5C178.839 96.334 188.173 96.5 197.5 97C201.717 100.473 201.384 103.473 196.5 106C187.833 106.667 179.167 106.667 170.5 106C165.55 103.357 165.217 100.19 169.5 96.5ZM36.5 132.5C40.756 131.454 43.422 132.954 44.5 137C43.899 138.605 42.899 139.938 41.5 141C34.663 145.253 27.663 149.253 20.5 153C14.01 153.835 12.01 151.168 14.5 145C22.058 141.059 29.392 136.892 36.5 132.5ZM159.5 131.5C169.225 134.947 178.392 139.613 187 145.5C188.825 150.986 186.992 153.486 181.5 153C173.671 148.92 166.004 144.587 158.5 140C157.041 136.929 157.374 134.096 159.5 131.5ZM62.5 158.5C68 157.831 70.167 160.165 69 165.5C64.898 173.262 60.398 180.762 55.5 188C50 189.167 47.833 187 49 181.5C53.512 173.806 58.012 166.139 62.5 158.5ZM134.5 157.5C136.484 157.383 138.15 158.05 139.5 159.5C144.498 167.331 148.832 175.497 152.5 184C150.315 189.368 147.148 189.868 143 185.5C138.613 178.06 134.78 170.393 131.5 162.5C131.323 160.032 132.323 158.365 134.5 157.5ZM98.5 167.5C100.936 167.317 103.103 167.984 105 169.5C105.667 179.167 105.667 188.833 105 198.5C102.679 201.917 100.012 202.25 97 199.5C96.333 189.5 96.333 179.5 97 169.5C97.717 168.956 98.217 168.289 98.5 167.5Z" fill="white" stroke="black" stroke-opacity="0.42"/>
</svg>
